<?xml version="1.0" encoding="utf-8"?>
<!-- Generator: Adobe Illustrator 19.0.0, SVG Export Plug-In . SVG Version: 6.00 Build 0)  -->
<svg version="1.1" xmlns="http://www.w3.org/2000/svg" xmlns:xlink="http://www.w3.org/1999/xlink" x="0px" y="0px"
	 viewBox="0 0 300 300" style="enable-background:new 0 0 300 300;" xml:space="preserve">
<style type="text/css">
	.st0{fill:none;}
	.st1{fill:#CCCCCC;}
	.st2{fill:#231F20;}
	.st3{fill:url(#SVGID_1_);}
	.st4{fill:#B7B7B7;stroke:#000000;stroke-miterlimit:10;}
</style>
<pattern  y="300" width="41.6" height="300" patternUnits="userSpaceOnUse" id="New_Pattern_Swatch_2" viewBox="0 -300 41.6 300" style="overflow:visible;">
	<g>
		<polygon class="st0" points="0,0 41.6,0 41.6,-300 0,-300 		"/>
		<polygon class="st1" points="20.8,-300 20.8,0 41.6,0 41.6,-300 		"/>
		<polygon class="st2" points="0,-300 0,0 20.8,0 20.8,-300 		"/>
	</g>
</pattern>
<g id="Layer_2">
	
		<pattern  id="SVGID_1_" xlink:href="#New_Pattern_Swatch_2" patternTransform="matrix(-0.7071 -0.7071 0.7071 -0.7071 -7667.8047 -20359.3301)">
	</pattern>
	<rect x="0" y="0" class="st3" width="300" height="300"/>
</g>
<g id="Layer_1">
	<polygon id="XMLID_3_" class="st4" points="148.7,2.1 52.4,98.4 106.2,152.2 54.3,204.1 147.6,297.5 242.3,202.8 192,152.5 
		242.2,102.2 	"/>
	<polygon id="XMLID_1_" class="st2" points="148.7,57.3 105.9,100.1 148.8,143.1 191.5,100.4 	"/>
	<polygon id="XMLID_2_" class="st2" points="148.7,159.4 105.9,202.2 148.8,245.2 191.5,202.5 	"/>
</g>
</svg>
